<?xml version="1.0" encoding="UTF-8" standalone="no"?>
<!-- Created with Inkscape (http://www.inkscape.org/) -->

<svg
   xmlns:dc="http://purl.org/dc/elements/1.1/"
   xmlns:cc="http://creativecommons.org/ns#"
   xmlns:rdf="http://www.w3.org/1999/02/22-rdf-syntax-ns#"
   xmlns:svg="http://www.w3.org/2000/svg"
   xmlns="http://www.w3.org/2000/svg"
   xmlns:sodipodi="http://sodipodi.sourceforge.net/DTD/sodipodi-0.dtd"
   xmlns:inkscape="http://www.inkscape.org/namespaces/inkscape"
   version="1.1"
   id="svg3822"
   width="1807.3794"
   height="1603.5017"
   viewBox="0 0 1807.3795 1603.5017"
   sodipodi:docname="troy-black.svg"
   inkscape:version="0.92.2 5c3e80d, 2017-08-06">
  <metadata
     id="metadata3828">
    <rdf:RDF>
      <cc:Work
         rdf:about="">
        <dc:format>image/svg+xml</dc:format>
        <dc:type
           rdf:resource="http://purl.org/dc/dcmitype/StillImage" />
        <dc:title></dc:title>
      </cc:Work>
    </rdf:RDF>
  </metadata>
  <defs
     id="defs3826" />
  <sodipodi:namedview
     pagecolor="#ffffff"
     bordercolor="#666666"
     borderopacity="1"
     objecttolerance="10"
     gridtolerance="10"
     guidetolerance="10"
     inkscape:pageopacity="0"
     inkscape:pageshadow="2"
     inkscape:window-width="1920"
     inkscape:window-height="1010"
     id="namedview3824"
     showgrid="false"
     inkscape:zoom="0.53"
     inkscape:cx="780.58073"
     inkscape:cy="981.29315"
     inkscape:window-x="0"
     inkscape:window-y="41"
     inkscape:window-maximized="1"
     inkscape:current-layer="layer3"
     fit-margin-top="0"
     fit-margin-left="0"
     fit-margin-right="0"
     fit-margin-bottom="0" />
  <g
     inkscape:groupmode="layer"
     id="layer3"
     inkscape:label="Single"
     transform="translate(131.58665,-684.37244)">
    <path
       style="display:inline;opacity:1;fill:#000000;fill-opacity:0;stroke:#000000;stroke-width:60;stroke-miterlimit:4;stroke-dasharray:none;stroke-opacity:1"
       d="m -101.58665,714.37244 c 582.4598,0 1164.91955,0 1747.37935,0 0,368.41866 0,736.83726 0,1105.25586 -582.4598,0 -1164.91955,0 -1747.37935,0 0,-368.4186 0,-736.8372 0,-1105.25586 z"
       id="rect3901"
       inkscape:connector-curvature="0" />
    <path
       style="fill:#000000;stroke-width:1.33333337"
       d="m 1210.1243,1590.6057 c -14.3813,-2.5488 -29.4539,-7.5785 -44.4555,-14.8348 -11.0265,-5.3335 -12.3709,-6.3616 -11.7183,-8.9619 0.696,-2.7729 34.9338,-82.0889 35.8153,-82.9704 0.2274,-0.2274 5.0103,1.8967 10.6287,4.7203 14.4621,7.2682 22.4459,8.8179 35.742,6.9376 21.0999,-2.9839 33.7256,-12.5935 43.7416,-33.2923 5.3282,-11.0111 5.8421,-12.8624 4.6266,-16.6667 -0.752,-2.3538 -33.0199,-76.5796 -71.7064,-164.9463 -38.6865,-88.3666 -70.6359,-161.7224 -70.9987,-163.0127 -0.6241,-2.2196 2.8831,-2.3273 65.1205,-2 l 65.7801,0.346 25.8442,78.6667 c 14.2143,43.2667 28.3839,88.8156 31.4878,101.2199 l 5.6436,22.5531 4.8685,-20.5531 c 2.6776,-11.3043 14.9198,-57.0032 27.2048,-101.5532 l 22.3363,-81 h 63.1749 63.1749 l -0.6165,3 c -1.4697,7.1528 -141.8739,381.3692 -146.6852,390.9572 -11.6345,23.1853 -28.5597,43.6837 -47.0092,56.9337 -14.0832,10.1143 -35.9956,19.3288 -55.3333,23.2685 -14.2539,2.904 -43.523,3.5178 -56.6667,1.1884 z M 736.79095,1461.9511 c -7.33333,-0.5455 -15.43333,-1.4076 -18,-1.9156 -16.72678,-3.3106 -29.33333,-6.4791 -29.33333,-7.3726 0,-0.5735 2.69767,-2.073 5.99483,-3.3322 8.69443,-3.3204 24.49241,-14.0451 30.72026,-20.8549 12.90143,-14.1068 20.49564,-33.9998 21.5636,-56.4855 0.39771,-8.3737 0.0732,-17.8976 -0.75173,-22.0657 -0.79829,-4.0334 -2.98341,-14.8334 -4.85584,-24 -13.19293,-64.5877 3.45228,-124.4001 46.57741,-167.3698 47.26154,-47.0912 118.17983,-66.1327 190.49468,-51.1476 57.10017,11.8323 104.34917,46.8157 128.57097,95.1946 21.295,42.5329 24.289,95.1008 8.0491,141.3228 -19.9512,56.785 -71.8072,99.4047 -137.02997,112.6227 -17.96723,3.6412 -43.84773,5.7222 -58.66339,4.717 -28.09932,-1.9065 -59.07515,-9.3536 -81.15476,-19.5108 l -11.15151,-5.13 -10.84849,7.2111 c -22.4714,14.9369 -47.35315,20.5588 -80.18183,18.1165 z M 178.79098,1264.5912 v -194.6667 h -74 -74.000003 v -51.3333 -51.33336 H 234.79097 438.79096 v 51.33336 51.3333 h -74 -74 v 194.6667 194.6667 h -55.99999 -55.99999 z m 258.66665,22.6667 v -172 h 51.18232 51.18232 l 0.74669,32.3333 c 0.41068,17.7833 1.15133,34.3147 1.64591,36.7364 0.87417,4.2804 1.09825,4.0017 8.04105,-10 20.40685,-41.1549 57.37309,-66.9457 99.35329,-69.3173 7.78336,-0.4397 15.73336,-0.4024 17.66667,0.083 l 3.51508,0.8822 v 56.6136 56.6136 l -16.33334,-0.8108 c -18.60377,-0.9235 -31.13692,0.613 -46.17302,5.6604 -28.38206,9.5276 -48.08057,32.4514 -55.07041,64.0872 -2.75531,12.4704 -2.92514,17.0221 -3.43698,92.1186 l -0.53845,79 H 493.3482 437.45763 Z"
       id="path3898"
       inkscape:connector-curvature="0" />
    <rect
       id="rect3905-3"
       width="66.037735"
       height="469.81131"
       x="1387.7358"
       y="1815.2328" />
    <rect
       id="rect3905"
       width="66.037735"
       height="469.81131"
       x="49.056602"
       y="1818.0629" />
  </g>
</svg>
